<svg xmlns="http://www.w3.org/2000/svg" id="Layer_1" data-name="Layer 1" viewBox="0 0 874.4 355.7"><defs><style>.cls-1{fill:#e99900}.cls-3{fill:#3e3e3c}</style></defs><g id="Logo"><path d="M665.5 152.7h8.7c2.8 0 5-2.2 5-5v-13.6c0-2.8-2.2-5-5-5h-8.7c-2.8 0-5 2.2-5 5v13.6c0 2.8 2.2 5 5 5M75.5 261H86c3.6 0 6.5-2.9 6.5-6.5v-118c0-2.7-2.1-4.8-4.7-4.8h-9c-2.5 0-4.7 2.2-4.7 4.8v93.8l-49.6-94.4c-1.7-3.2-3.2-4.3-8.4-4.3H6.8c-3.7 0-6.5 2.8-6.5 6.4v119.4c0 1.7.8 3.7 4.7 3.7h8.8c2.5 0 4.7-2.2 4.7-4.8v-93.9l50.1 95.1c1.2 2.3 3.6 3.6 6.9 3.6M150.3 163.2c-24.6 0-39.3 15.5-39.3 41.3v15.3c0 36.9 25.2 42.4 40.2 42.4s20.3-.9 30.7-2.9c3.3-.6 4.7-2.3 4.7-5.5V248c0-2.4-1.8-4-4.3-4h-1.1c-7.2 1.1-19.5 1.9-30 1.9-15.6 0-22-7.6-22-26.1v-.8h55.3c2.9 0 4.8-2.2 4.8-5.4v-9.2c0-26.3-14.2-41.3-39-41.3m0 16.4c14.4 0 20.6 7.5 20.6 25h-41.8c0-16.8 6.9-25 21.1-25M324.3 170.4v-1c0-2.7-2.2-5-4.8-5h-9.2c-2.5 0-4.2 2.1-4.5 4l-13.9 76.4-16.4-64.3c-1.2-4.2-3.9-6.3-8.4-6.3h-9.5c-4.5 0-7.2 2.1-8.4 6.3l-16.4 64.3-13.9-76.3c-.3-2-2-4.1-4.5-4.1h-9.2c-2.6 0-4.8 2.3-4.8 5v.7l16.5 79.1c2.3 11.1 4.7 13 15.8 13s12.7-2.8 15.5-13.4l14.1-54.9 14.1 54.9c2.8 11.1 5.6 13.4 15.5 13.4s13.4-1.2 15.8-13l16.5-78.8h.1ZM401.3 261c2.9 0 4.7-2.6 4.7-5v-60.4c0-4.6-.4-8.7-1.2-12.2 7.1-2.6 13.2-4 18-4s13.8 1.9 13.8 16.6v60.1c0 2.8 2.3 5 5 5h8.1c2.8 0 5-2.2 5-5V196c0-27.2-15.8-32.9-29.1-32.9s-18.4 2.3-27.8 6.6c-4.3-4.5-9.9-6.6-17.4-6.6s-15.3 2.3-23.2 6.8v-.4c0-2.8-2.1-5-4.8-5h-8.5c-2.7 0-4.8 2.2-4.8 5v86.6c0 2.8 2 5 4.5 5h9c2.9 0 4.7-2.5 4.7-5v-70.7c5.5-2.7 13.1-6 19.1-6s11.5 2.3 11.5 16.2V256c0 2.8 2 5 4.5 5h9-.1ZM549.8 204.6c0-26.3-14.2-41.3-39-41.3s-39.3 15.5-39.3 41.3v15.3c0 36.9 25.2 42.4 40.2 42.4s20.3-.9 30.7-2.9c3.3-.6 4.7-2.3 4.7-5.5v-5.8c0-2.4-1.8-4-4.3-4h-1.1c-7.2 1.1-19.5 1.9-30 1.9-15.6 0-22-7.6-22-26.1v-.8H545c2.9 0 4.8-2.2 4.8-5.4v-9.2.1Zm-39-25.1c14.4 0 20.6 7.5 20.6 25h-41.8c0-16.8 6.9-25 21.1-25M602.5 262.2c11.1 0 21.4-1 31.5-2.9 4.3-.7 4.9-3.1 4.9-5.5V134.9c0-2.7-2.1-4.8-4.7-4.8h-8.7c-2.7 0-4.8 2.2-4.8 4.8v29.7c-6.6-1-13.8-1.4-18.3-1.4-25.3 0-38.6 14.9-38.6 43.2v12.2c0 28.1 13.7 43.6 38.6 43.6m18.4-17.2c-5.6.5-13 .9-18.3.9-14.5 0-20.5-7.9-20.5-27.3v-12.2c0-18.9 6.1-26.9 20.5-26.9s13 .2 18.3.9V245ZM678.8 256v-86.6c0-2.8-2.2-5-5-5h-8.2c-2.8 0-5 2.2-5 5V256c0 2.8 2.2 5 5 5h8.2c2.8 0 5-2.2 5-5M757 165.1c-6.6-1.2-14.5-1.9-21.5-1.9-23.7 0-37.8 16-37.8 42.9v13.2c0 26.4 14.5 42.9 37.8 42.9s17.6-1.2 21.5-1.9c3.3-.6 4.7-2.2 4.7-5.3v-6.1c0-2.4-1.9-4.2-4.5-4.2h-.9c-7.8.9-13 1.2-20.9 1.2-13 0-19.6-8.9-19.6-26.6v-13.2c0-17.6 6.6-26.6 19.6-26.6s13.1.3 20.9 1.2h.9c2.6 0 4.5-1.7 4.5-4.2v-6.1c0-3.2-1.3-4.7-4.7-5.3M811 163.2c-11.9 0-19.8 1.1-26.5 2.2-4.3.6-5 3.3-5 4.8v5.9c0 2.7 1.7 4.3 4.7 4.3h1c7-.7 15-1.4 25.8-1.4s16.6 4.3 16.6 17.6v5.2h-11c-29.8 0-42.5 8.7-42.5 29.1v2c0 18.8 10.4 29.1 29.3 29.1s15.5-2.2 24.5-7.2v1c0 2.8 2.2 5 5 5h7.8c2.8 0 5-2.2 5-5v-59.3c0-22.3-11.7-33.5-34.7-33.5m16.6 52.9v24.8c-8.1 4.3-14.5 6.1-21.3 6.1s-14-2.3-14-13.8v-2c0-10.4 3.5-15 24.4-15h11l-.1-.1ZM809.9 0c-35.6 0-64.5 28.9-64.5 64.5s28.9 64.5 64.5 64.5 64.5-28.9 64.5-64.5S845.5 0 809.9 0" class="cls-1"/><path d="M851.5 59.1c-1.5-1.6-3.6-2.5-5.7-2.5h-26.3c-.9 0-1.6-.7-1.6-1.6V28.7c0-2.4-1.1-4.6-2.9-6.1-1.8-1.5-4.2-2.1-6.6-1.7-3.7.7-6.4 4.1-6.4 8v26c0 .9-.7 1.6-1.6 1.6h-26.3c-2.2 0-4.3.9-5.7 2.5-1.5 1.6-2.3 3.7-2.2 5.9.2 4.2 3.9 7.5 8.3 7.5h25.9c.9 0 1.6.7 1.6 1.6v26.3c0 2.4 1 4.6 2.9 6.1 1.4 1.2 3.2 1.8 5.1 1.8s1 0 1.5-.1c3.7-.7 6.4-4.1 6.4-8v-26c0-.9.7-1.6 1.6-1.6h25.9c4.4 0 8.1-3.3 8.3-7.5.1-2.2-.7-4.3-2.2-5.9" style="fill:#fff"/><path d="M433 303.5h6.2v46.9H433zM6.4 316v8.5h13.9v5.2H6.4v10h16.4v5.6H0v-35h22.8v5.6H6.4v.1ZM53.3 318.8l-17.2 36.4h-6.5l6-12.7-10.8-23.6h6.5l7.4 16.8 8-16.8h6.5l.1-.1ZM78 334.1H59.3c.7 4.1 3.7 6.4 7.9 6.4s6.1-.8 9-2.5l.3 5.4c-2.5 1.4-5.7 2.4-9.8 2.4-7.6 0-13.8-4.7-13.8-13.7s6.3-13.9 13.8-13.9 11.8 4.7 11.8 11.5-.1 2.7-.5 4.2v.2Zm-5.3-5c0-3.2-2-5.7-5.8-5.7s-6.7 2.4-7.5 6.5h13.2c0-.2.1-.4.1-.7v-.1ZM126.2 310.4v35h-6.4V330h-16.6v15.4h-6.4v-35h6.4v13.9h16.6v-13.9h6.4ZM155.7 334.1H137c.7 4.1 3.7 6.4 7.9 6.4s6.1-.8 9-2.5l.3 5.4c-2.5 1.4-5.7 2.4-9.8 2.4-7.6 0-13.8-4.7-13.8-13.7s6.3-13.9 13.8-13.9 11.8 4.7 11.8 11.5-.1 2.7-.5 4.2v.2Zm-5.3-5c0-3.2-2-5.7-5.8-5.7s-6.7 2.4-7.5 6.5h13.2c0-.2.1-.4.1-.7v-.1ZM182.8 328.9v16.5h-6.1v-2.7c-2 1.9-4.8 3.2-8 3.2-5.9 0-9.6-3.6-9.6-8.6s4.1-8.6 10.3-8.6 4.6.4 7.2 1.2v-.8c0-4-3-5.8-6.8-5.8s-6.1 1-8.4 2.9l-.2-5.4c2-1.3 5.7-2.4 9.7-2.4 6.9 0 11.9 3.2 11.9 10.6v-.1Zm-6.1 9.3v-4c-2.2-.7-4.3-1.1-6.5-1.1-3.2 0-5.1 1.6-5.1 4s2.1 4 4.8 4 4.6-.9 6.8-2.9ZM187.3 308.4h6.2v37h-6.2v-37ZM217.8 344.2c-1.3.9-3.6 1.7-6.6 1.7-5.7 0-9.1-3.4-9.1-10.2v-12.1h-4.8v-4.7h4.8v-5.3l6.2-1.4v6.8h9.2v4.7h-9.2v12.2c0 2.7 1.4 4.6 4.2 4.6s2.9-.4 4.4-1.4l.9 5.3v-.2ZM246.9 328.4v17h-6.2V330c0-3.7-2-6-5.8-6s-5.2 1.5-7 3.8v17.6h-6.2v-37h6.2v13.8c2.2-2.3 5.4-3.9 9.3-3.9 6.5 0 9.6 3.9 9.6 10.1h.1ZM265 327.9c0-11.1 8.3-18 18.3-18s8.7 1.1 11.4 2.8l-1 6.4c-3.3-2.5-6.2-3.5-10-3.5-6.3 0-12.1 4.4-12.1 12.2s5.8 12.2 12.1 12.2 6.7-1 10.1-3.5l1 6.3c-2.5 1.6-6.2 2.9-11.5 2.9-10 0-18.3-6.8-18.3-18v.2ZM299.3 308.4h6.2v37h-6.2v-37ZM310.7 310.9c0-2.1 1.8-3.9 3.9-3.9s3.9 1.8 3.9 3.9-1.8 3.9-3.9 3.9-3.9-1.8-3.9-3.9Zm7.1 34.5h-6.2v-26.6h6.2v26.6ZM348.6 328.4v17h-6.2V330c0-3.7-1.9-6-5.5-6s-5.3 1.3-6.9 3.4v18h-6.2v-26.6h6.2v3.4c2.2-2.4 5.5-3.9 9.2-3.9 6.3 0 9.4 3.9 9.4 10.1ZM353.7 310.9c0-2.1 1.8-3.9 3.9-3.9s3.9 1.8 3.9 3.9-1.8 3.9-3.9 3.9-3.9-1.8-3.9-3.9Zm7 34.5h-6.2v-26.6h6.2v26.6ZM378.9 318.3c3.9 0 6.5 1 8.8 2.3l-.6 5.8c-2.3-1.8-4.7-2.8-7.5-2.8-4.3 0-8 3-8 8.4s3.7 8.4 8 8.4 5.1-1 7.5-2.8l.6 5.7c-2.2 1.4-4.9 2.5-8.8 2.5-7.6 0-13.7-5.1-13.7-13.8s6.1-13.8 13.7-13.8v.1ZM390.5 343.1l.6-6c2.5 2.1 6 3.4 9.6 3.4s4.4-1.1 4.4-2.9c0-4.9-14.3-2.4-14.3-11.3s4.6-7.9 10.1-7.9 6.8.9 9 2.3l-.3 5.5c-2.6-1.8-5.8-2.7-8.7-2.7s-4 .8-4 2.5c0 4.1 14.3 2.1 14.3 11.3s-4.9 8.5-10.7 8.5-7.7-1.1-10.2-2.8l.2.1ZM460.9 342.5l.7-7.2c3.1 3 7.3 4.9 11.6 4.9s6.7-1.7 6.7-4.7-4.1-4.8-9.5-6.3c-4.8-1.2-9-4-9-9.5s5.8-9.7 12.5-9.7 7.6 1 10.5 2.6l-.4 6.8c-2.8-2.3-6.4-3.8-10.3-3.8s-6 1.4-6 3.9 3.3 3.9 8.8 5.4c4.7 1.2 9.8 3.7 9.8 10.2s-5.9 10.8-13.4 10.8-8.9-1.3-12-3.4ZM515.7 318.8v26.6h-6.1V342c-2.2 2.3-5.4 3.9-9.2 3.9-6.3 0-9.4-3.9-9.4-10.1v-17h6.2v15.4c0 3.7 1.8 6 5.5 6s5.2-1.4 6.9-3.5v-18h6.1v.1ZM540 319.5l-.8 5.7c-1.5-.8-2.9-1.1-4.4-1.1-2.7 0-5.2 1.4-7 4.3v17h-6.2v-26.6h6.2v3.6c1.7-2.4 4.3-4.1 7.8-4.1s3.1.4 4.5 1.1l-.1.1ZM567.7 318.8v23.7c0 9.6-6.4 13.2-14 13.2s-7.6-1-10.2-2.4l.4-5.6c2.7 2 6.1 3.1 9.8 3.1s7.7-2 7.7-7.5v-1.2c-2 1.6-4.5 2.9-7.9 2.9-6.1 0-12.4-4.4-12.4-13.3s6.3-13.3 12.4-13.3 6 1 7.9 2.8v-2.3h6.2l.1-.1Zm-6.2 17.6V327c-1.7-2.1-4.1-3.4-6.9-3.4-4 0-7.1 3.2-7.1 8s3 8 7 8 5.2-1.1 7-3.2ZM572.9 310.9c0-2.1 1.8-3.9 3.9-3.9s3.9 1.8 3.9 3.9-1.8 3.9-3.9 3.9-3.9-1.8-3.9-3.9Zm7 34.5h-6.2v-26.6h6.2v26.6ZM598.1 318.3c3.9 0 6.5 1 8.8 2.3l-.6 5.8c-2.3-1.8-4.7-2.8-7.5-2.8-4.3 0-8 3-8 8.4s3.7 8.4 8 8.4 5.1-1 7.5-2.8l.6 5.7c-2.2 1.4-4.9 2.5-8.8 2.5-7.6 0-13.7-5.1-13.7-13.8s6.1-13.8 13.7-13.8v.1ZM633.5 328.9v16.5h-6.1v-2.7c-2 1.9-4.8 3.2-8 3.2-5.9 0-9.6-3.6-9.6-8.6s4.1-8.6 10.3-8.6 4.6.4 7.2 1.2v-.8c0-4-3-5.8-6.8-5.8s-6.1 1-8.4 2.9l-.2-5.4c2-1.3 5.7-2.4 9.7-2.4 6.9 0 11.9 3.2 11.9 10.6v-.1Zm-6.2 9.3v-4c-2.2-.7-4.3-1.1-6.5-1.1-3.2 0-5.1 1.6-5.1 4s2.1 4 4.8 4 4.6-.9 6.8-2.9ZM637.9 308.4h6.2v37h-6.2v-37ZM662.3 327.9c0-11.1 8.3-18 18.3-18s8.7 1.1 11.4 2.8l-1 6.4c-3.3-2.5-6.2-3.5-10-3.5-6.3 0-12.1 4.4-12.1 12.2S674.7 340 681 340s6.7-1 10.1-3.5l1 6.3c-2.5 1.6-6.2 2.9-11.5 2.9-10 0-18.3-6.8-18.3-18v.2ZM719.9 334.1h-18.7c.7 4.1 3.7 6.4 7.9 6.4s6.1-.8 9-2.5l.3 5.4c-2.5 1.4-5.7 2.4-9.8 2.4-7.6 0-13.8-4.7-13.8-13.7s6.3-13.9 13.8-13.9 11.8 4.7 11.8 11.5-.1 2.7-.5 4.2v.2Zm-5.3-5c0-3.2-2-5.7-5.8-5.7s-6.7 2.4-7.5 6.5h13.2c0-.2.1-.4.1-.7v-.1ZM749.8 328.4v17h-6.2V330c0-3.7-1.9-6-5.5-6s-5.3 1.3-6.9 3.4v18H725v-26.6h6.2v3.4c2.2-2.4 5.5-3.9 9.2-3.9 6.3 0 9.4 3.9 9.4 10.1ZM773.3 344.2c-1.3.9-3.6 1.7-6.6 1.7-5.7 0-9.1-3.4-9.1-10.2v-12.1h-4.8v-4.7h4.8v-5.3l6.2-1.4v6.8h9.2v4.7h-9.2v12.2c0 2.7 1.4 4.6 4.2 4.6s2.9-.4 4.4-1.4l.9 5.3v-.2ZM795.6 319.5l-.8 5.7c-1.5-.8-2.9-1.1-4.4-1.1-2.7 0-5.2 1.4-7 4.3v17h-6.2v-26.6h6.2v3.6c1.7-2.4 4.3-4.1 7.8-4.1s3.1.4 4.5 1.1l-.1.1ZM821.3 334.1h-18.7c.7 4.1 3.7 6.4 7.9 6.4s6.1-.8 9-2.5l.3 5.4c-2.5 1.4-5.7 2.4-9.8 2.4-7.6 0-13.8-4.7-13.8-13.7s6.3-13.9 13.8-13.9 11.8 4.7 11.8 11.5-.1 2.7-.5 4.2v.2Zm-5.3-5c0-3.2-2-5.7-5.8-5.7s-6.7 2.4-7.5 6.5h13.2c0-.2.1-.4.1-.7v-.1ZM824.8 343.1l.6-6c2.5 2.1 6 3.4 9.6 3.4s4.4-1.1 4.4-2.9c0-4.9-14.3-2.4-14.3-11.3s4.6-7.9 10.1-7.9 6.8.9 9 2.3l-.3 5.5c-2.6-1.8-5.8-2.7-8.7-2.7s-4 .8-4 2.5c0 4.1 14.3 2.1 14.3 11.3s-4.9 8.5-10.7 8.5-7.7-1.1-10.2-2.8l.2.1Z" class="cls-3"/></g></svg>